<svg class="svg-gear svg-icon" xmlns="http://www.w3.org/2000/svg" viewBox="0 0 20 20"><g fill="none" stroke-width="1.25" stroke="#aaa"><path d="M17,11.2V8.8h-3.1 c-0.1-0.3-0.2-0.5-0.3-0.8l2.2-2.2l-1.6-1.6l-2.2,2.2c-0.2-0.1-0.5-0.2-0.8-0.3V3H8.8v3.1C8.6,6.2,8.3,6.3,8.1,6.4L5.9,4.2L4.2,5.9 l2.2,2.2C6.3,8.3,6.2,8.6,6.1,8.8H3v2.3h3.1c0.1,0.3,0.2,0.5,0.3,0.8l-2.2,2.2l1.6,1.7l2.2-2.2c0.2,0.1,0.5,0.2,0.8,0.3V17h2.3 v-3.1c0.3-0.1,0.5-0.2,0.8-0.3l2.2,2.2l1.6-1.7l-2.2-2.2c0.1-0.2,0.2-0.5,0.3-0.8H17z"></path></g><circle cx="10" cy="10" r="1.5" fill="none" stroke-width="1.25" stroke="#aaa"></circle></svg>