<svg class="svg-icon svg-question" xmlns="http://www.w3.org/2000/svg" viewBox="0 0 20 20"><g fill="none" stroke-width="1.25" stroke="#aaa"><circle cx="10" cy="10" r="8"></circle></g><g fill="none" stroke-width="1.25" stroke="#aaa"><path d="M10.046,6.25c-0.595,0-1.105,0.203-1.478,0.587c-0.385,0.397-0.585,0.97-0.564,1.613l0.008,0.242h1.136 L9.144,8.438C9.137,8.054,9.229,7.754,9.409,7.571c0.152-0.155,0.372-0.234,0.652-0.234c0.465,0,0.766,0.283,0.766,0.721 c0,0.317-0.118,0.538-0.428,0.791l-0.311,0.275C9.577,9.553,9.457,9.714,9.457,10.31v0.731h1.117v-0.619 c0-0.267,0-0.267,0.238-0.481l0.276-0.239c0.384-0.327,0.909-0.773,0.909-1.703C11.997,7.156,11.387,6.25,10.046,6.25z"></path>
<rect height="1.5" width="1.5" x="9.25" y="12"></rect></g></svg>