<svg class="svg-gear svg-icon" xmlns="http://www.w3.org/2000/svg" viewBox="0 0 20 20"><g stroke-width="1.25" fill="none" stroke="#aaa"><path d="M18,11.3V8.7h-3.6 c-0.1-0.3-0.2-0.6-0.4-0.9l2.5-2.5l-1.9-1.9l-2.5,2.5c-0.3-0.1-0.6-0.3-0.9-0.4V2H8.7v3.5C8.4,5.6,8.1,5.8,7.8,5.9L5.3,3.4L3.4,5.3 l2.5,2.5C5.8,8.1,5.6,8.4,5.6,8.7H2v2.7h3.6c0.1,0.3,0.2,0.6,0.4,0.9l-2.5,2.5l1.9,1.9l2.5-2.5c0.3,0.1,0.6,0.3,0.9,0.4V18h2.7 v-3.6c0.3-0.1,0.6-0.2,0.9-0.4l2.5,2.5l1.9-1.9l-2.5-2.5c0.1-0.3,0.3-0.6,0.4-0.9H18z"></path></g><circle cx="10" cy="10" r="1.7" stroke-width="1.25" fill="none" stroke="#aaa"></circle></svg>