<svg class="svg-icon svg-sparkles" xmlns="http://www.w3.org/2000/svg" viewBox="0 0 24 24"><g stroke-width="1.25" fill="none" stroke="#aaa"><path d="M18.1,15.8c-2.3,0-4.1,1.9-4.1,4.2 c0-2.3-1.8-4.2-4.1-4.2c2.3,0,4.1-1.9,4.1-4.2C14,13.9,15.9,15.8,18.1,15.8z"></path></g><g stroke-width="1.25" fill="none" stroke="#aaa"><path d="M11.7,6.5c-3.2,0-5.8,2.7-5.8,6 c0-3.3-2.6-6-5.8-6c3.2,0,5.8-2.7,5.8-6C5.8,3.7,8.5,6.5,11.7,6.5z"></path></g><g stroke-width="1.25" fill="none" stroke="#aaa"><path d="M24,4.2c-2.3,0-4.1,1.9-4.1,4.2 c0-2.3-1.8-4.2-4.1-4.2c2.3,0,4.1-1.9,4.1-4.2C19.9,2.3,21.7,4.2,24,4.2z"></path></g></svg>