<svg class="svg-icon svg-sparkles" xmlns="http://www.w3.org/2000/svg" viewBox="0 0 20 20"><g stroke-width="1.25" fill="#000" stroke="#000"><path d="M10,7c-2.8,0-5,2.2-5,5c0-2.8-2.2-5-5-5c2.8,0,5-2.2,5-5 C5,4.8,7.2,7,10,7z"></path></g><g stroke-width="1.25" fill="#000" stroke="#000"><path d="M15,14.5c-1.9,0-3.5,1.6-3.5,3.5c0-1.9-1.6-3.5-3.5-3.5 c1.9,0,3.5-1.6,3.5-3.5C11.5,12.9,13.1,14.5,15,14.5z"></path></g><g stroke-width="1.25" fill="#000" stroke="#000"><path d="M19,4.5c-1.9,0-3.5,1.6-3.5,3.5c0-1.9-1.6-3.5-3.5-3.5 c1.9,0,3.5-1.6,3.5-3.5C15.5,2.9,17.1,4.5,19,4.5z"></path></g></svg>